<svg width="120" height="60" fill="none" xmlns="http://www.w3.org/2000/svg"><g clip-path="url(#clip0_1:3)" fill="#F9C846"><path d="M71.49 3.327c-1.74 1.693-3.75 3.861-4.5 4.841l-1.35 1.783 2.55 2.405c2.91 2.763 7.26 6.06 7.98 6.06.93 0 9.03-8.614 9.03-9.624 0-1.01-8.91-8.495-10.11-8.495-.24 0-1.86 1.366-3.6 3.03zm7.8 4.07c.12.534.21 1.722.15 2.643-.09 1.515-.15 1.693-.69 1.604-1.02-.179-2.94-1.575-2.61-1.901.21-.208.57-.12 1.11.237.69.446.84.446 1.08.09.15-.238.21-.684.12-1.01-.06-.327-.15-.773-.15-.98 0-.714-.63-.327-3.06 1.87-1.35 1.248-2.67 2.199-2.91 2.169-.54-.119-.99-2.139-.87-3.95.12-1.515.75-1.664 2.37-.624 1.23.831 1.53 1.455.6 1.307-.63-.09-1.83.831-1.83 1.455 0 .802.84.327 3.27-1.871 1.35-1.218 2.64-2.169 2.82-2.11.18.06.45.535.6 1.07z"/><path d="M72.6 8.495c0 .238.15.357.3.267.18-.089.3-.297.3-.475 0-.148-.12-.267-.3-.267-.15 0-.3.208-.3.475zM11.73 3.356c-1.89.921-2.91 2.347-3.57 4.901-.48 1.842-.63 2.11-.96 1.723-.81-.98-1.38-.534-2.49 1.96-.63 1.367-1.11 2.615-1.11 2.793 0 .178 1.17 1.099 2.61 2.079 3.99 2.673 5.19 3.832 5.19 5.08 0 1.128-2.97 8.316-8.04 19.365L.18 48.178l.69.565c.66.534 1.17.564 5.67.505l4.98-.09 1.95-3.475c1.47-2.614 2.13-3.475 2.58-3.505.33 0 1.62.357 2.91.773l2.28.801.66 2.763c.33 1.515.75 2.792.9 2.851.39.12 9.6-.267 9.72-.386.06-.06.21-5.05.3-11.109.12-6.03.27-11.05.33-11.138.03-.09.15-1.931.18-4.129l.12-4.01-.9-.238c-.48-.148-3.06-.712-5.7-1.307-10.74-2.346-12.78-3.415-11.88-6.356.18-.653.81-1.634 1.35-2.139l1.02-.95-1.86-2.436c-.99-1.366-1.95-2.465-2.13-2.465-.15 0-.9.297-1.62.653zm11.22 23.11c.15.148.36 1.87.42 3.831l.09 3.505-.84.446c-.75.386-1.02.386-2.37 0-2.37-.654-3.15-1.01-3.15-1.456 0-.594 2.07-6.089 2.46-6.594.42-.475 2.82-.297 3.39.267zM104.85 8.91c-.33.15-4.23 1.753-8.67 3.565-7.59 3.12-10.98 4.604-10.98 4.871 0 1.278 7.2 30.268 7.65 30.713.3.327 1.47.327 6.96-.089 3.6-.267 7.02-.445 7.56-.386l1.02.09-.06 3.475c-.06 3.207 0 3.505.48 3.505.3 0 2.76-.773 5.46-1.723 3.54-1.218 5.04-1.872 5.34-2.347.42-.624.39-.713-.9-1.485-.75-.445-1.56-.98-1.8-1.129-.42-.267-.27-.772.99-3.861.81-1.96 1.47-3.772 1.5-4.04 0-.237-.36-.772-.81-1.188-.84-.742-.87-.742-7.59-.802-3.72-.06-7.08-.148-7.5-.237-.51-.09-.9-.446-1.11-1.04-.39-1.04-.51-.95 4.41-2.881l2.85-1.1.36-2.375c.21-1.307.33-2.525.27-2.703-.09-.179-.99-.446-2.04-.535-1.05-.119-2.7-.535-3.69-.95-2.91-1.218-2.76-1.218-4.38.356L98.7 28.04l-.9-.862c-.48-.445-1.02-1.277-1.23-1.841-.33-1.04-.15-2.614.39-2.94.15-.12 1.23.177 2.4.652 1.8.713 2.13.773 2.34.387 1.35-2.347 3.72-4.842 5.82-6.06.45-.267.48-.564.21-2.525-.15-1.217-.39-3.118-.48-4.247-.18-1.93-.24-1.99-.99-1.96-.45 0-1.08.118-1.41.267zM56.76 23.05c-2.7 2.197-5.01 3.98-5.16 3.98-.15 0-1.86-1.664-3.81-3.713-1.98-2.05-3.66-3.713-3.78-3.713-.42 0-7.77 4.574-7.92 4.93-.12.327 1.83 3.743 4.53 7.931.63.95 1.05 1.901.99 2.08-.09.207-1.71 2.049-3.66 4.128-1.92 2.11-3.45 3.921-3.39 4.07.03.178 1.83 1.9 3.96 3.86l3.9 3.565 1.95-1.752c1.11-.921 3.3-2.94 4.92-4.426 1.77-1.634 3.09-2.614 3.3-2.495.21.119 1.5 1.099 2.91 2.198 4.2 3.238 8.13 5.91 8.79 5.91.54 0 6.72-4.068 7.38-4.87.21-.238.03-1.337-.45-3.297-.42-1.634-.84-3.03-.9-3.09-.06-.059-.48.06-.93.268-2.52 1.158-4.32.92-6.6-.832-1.47-1.158-3.21-3.861-2.85-4.396.12-.148 2.07-1.812 4.32-3.653 2.28-1.842 4.23-3.476 4.32-3.624.18-.297-5.61-6.327-6.48-6.802-.33-.149-1.83.891-5.34 3.742zM76.59 19.753c-2.52.356-5.07.772-5.67.89l-1.11.179.21 2.05c.27 2.91.3 2.97 1.98 2.97.78 0 1.56.178 1.74.356.99 1.247.6 5.436-.81 8.436l-.9 1.87.93 4.783c.69 3.505 1.08 4.782 1.41 4.901 1.11.327 8.85 1.634 9.69 1.634h.93l-.21-2.911c-.09-1.574-.45-7.753-.78-13.723-.33-5.97-.66-11.139-.75-11.525-.21-.831-.63-.831-6.66.09z"/><path d="M65.37 29.91c-.63 1.605.27 6.03 1.23 6.03.42 0 .69-1.217.69-3.148-.03-2.851-1.23-4.663-1.92-2.881zM23 56.483v3.119h2.1V53.364H23v3.119zM27.5 56.483v3.119h.9c.87 0 .9-.06.9-1.337 0-.743.12-1.337.24-1.337.15 0 .66.594 1.2 1.337.78 1.07 1.11 1.337 1.86 1.337h.9V53.364h-.9c-.9 0-.9.03-.9 1.634 0 .89-.09 1.633-.24 1.633-.12 0-.66-.742-1.2-1.633-.84-1.396-1.14-1.634-1.89-1.634h-.87v3.119zM35.6 56.483v3.119h1.05c1.02 0 1.05-.03 1.05-1.189 0-1.069.09-1.188.75-1.188.54 0 .75-.148.75-.594 0-.445-.21-.594-.75-.594-.48 0-.75-.178-.75-.445 0-.327.36-.446 1.35-.446 1.29 0 1.35-.03 1.35-.891v-.891h-4.8v3.119zM42.5 56.453v3.148h2.1l.06-2.227c.03-1.218.06-2.584.06-3.06.03-.712-.09-.802-1.08-.89l-1.14-.09v3.119zM47.21 53.572c-.12.089-.21 1.515-.21 3.119v2.91h1.02c1.02 0 1.05-.03 1.14-1.425l.09-1.396 1.02 1.396c.81 1.128 1.2 1.425 1.89 1.425H53V53.364h-.9c-.84 0-.87.03-.96 1.694l-.09 1.693-1.14-1.693c-.81-1.248-1.29-1.693-1.8-1.693-.39 0-.81.089-.9.208zM55.4 56.483v3.119h2.1V53.364h-2.1v3.119zM59.9 54.404c0 .95.06 1.04.9 1.04h.9V59.601h2.1V55.443h1.05c.99 0 1.05-.06 1.05-1.04v-1.04h-6v1.04zM67.28 53.72c.15.208.75 1.04 1.38 1.812.63.802 1.14 1.604 1.14 1.782 0 .208-.27.802-.6 1.307l-.6.98H71.21l1.32-2.851c.72-1.574 1.38-3 1.41-3.119.06-.148-.42-.267-1.08-.267-1.05 0-1.23.119-1.56.891-.45 1.099-.6 1.099-1.35 0-.48-.743-.81-.891-1.74-.891-.84 0-1.08.089-.93.356zM79.879 59.99c.156.028.313.038.47.038 1.002 0 2.419-.083 2.419-1.877 0-.681-.276-.883-.819-1.233-.028-.01-.028-.018-.028-.037.534-.506.8-1.058.8-1.821 0-1.123-.947-1.27-1.747-1.371-.01 0-.065-.019-.074-.019-.708-.046-1.343-.009-1.775-.009-.166 0-.387.037-.562.092h-.036c-.249 0-.221 1.021-.24 1.435-.009.138-.009.276-.009.414 0 .304.01.608.01.92 0 .755-.028 1.51-.028 2.282 0 .12.018.957.064.957.12.129.203.175.387.184l1.168.046zm.156-2.28l.019-.02c.009-.008.083-.008.101-.008.386 0 .837.202.837.653 0 .497-.257.708-.727.717-.082 0-.156 0-.22-.036l-.01-1.307zm-.055-2.623c0-.018.01-.092.01-.092l.027-.037c.267-.009.883.046.883.479 0 .45-.478.69-.8.69 0 .037-.055.037-.074.037-.027-.36-.046-1.095-.046-1.077zm4.774 3.248c.138.11.138.58.35.837.56.7.818.837 1.352.938.1.019.266.083.377.083l.027-.018c.028 0 .148.027.194.027.35 0 .708-.11 1.04-.193 1.011-.156 1.462-1.251 1.664-2.097.01-.056.01-.12.046-.175l.083-.57c0-.332.055-.654.055-1.003 0-1.583-1.085-2.567-2.585-2.567-1.702 0-2.75 1.683-2.75 3.431 0 .221 0 .47.036.681.01.055.037.12.037.184l.074.442zm1.508-1.555c0-.727.516-1.426 1.28-1.426.432 0 .56.488.717.607.046.24.083.46.083.69 0 .653-.23 1.785-1.077 1.785-.901 0-1.003-1.03-1.003-1.656zm6.428 1.564c0 .22.037.46.046.68 0 .038.01.065.01.102.018.488.018.552.57.635.138.018.257.046.405.046.358 0 .855.064.947-.396.055-2.686 0-3.183 0-3.753 0-.148-.037-.295-.037-.442.019-.018.046-.018.074-.018.157 0 .47.036.626.036.625 0 .993-.073 1.076-.763.019-.203 0-.405.037-.598 0-.028.037-.138.037-.138 0-.285-.644-.193-1.05-.193-1.075 0-2.152.009-3.228.009h-.81a.13.13 0 00-.018.055c-.046.478-.055.93-.055 1.417l.073.055c0 .018.975.092 1.297.092l.028.028c.01.009.018.432.018.625 0 .12-.018 1.16-.018 1.288v.129c0 .055 0 .101-.019.175v.745c-.018.028-.018.055-.018.083 0 .037.019.055.019.064 0 0-.01.028-.01.037z"/></g><defs><clipPath id="clip0_1:3"><path fill="#fff" d="M0 0h120v60H0z"/></clipPath></defs></svg>